<svg width="274.04" height="264.19" overflow="visible" viewBox="0 0 274.036 264.192" xmlns="http://www.w3.org/2000/svg"><g clip-rule="evenodd" fill-rule="evenodd"><path d="M191.94 0c61.226 0 93.218 45.795 78.73 112.42-15.881 72.847-68.487 124.56-133.22 151.77C55.696 230.262 8.62 162.85-.01 71.79 36.077 65.776 64.482 40.458 62.479 0h129.46z" fill="#0094D9"/><path d="M261.01 110.28c-13.73 64.404-60.282 115.82-123.51 143.15C63.109 221.484 20.27 158.375 10.91 79.37c33.216-8.463 58.999-33.478 61.307-69.644h120.18c58.875-.26 80.792 46.042 68.62 100.55z" fill="#fff"/><path d="M252.44 108.38c-13.6 62.592-57.337 109.29-114.93 135.44-65.4-29.113-106.32-85.557-116.96-158.15 30.777-10.522 54.251-34.239 59.512-67.071h112.34c53.234-.261 70.685 41.034 60.034 89.775z" fill="#0094D9"/><path d="M211.19 93.006h-85.802l24.513-36.353 15.633-5.383c1.968-.674 1.404-2.093.397-2.093h-14.674l-1.587-15.91c-.051-.849-1.409-1.196-1.755-.051l-4.815 15.96h-15.279c-1.308 0-1.473 1.526 0 2.093l13.925 5.038-32.784 36.698h-69.33c-2.712 0-3.109 4.582 0 4.805l60.215 7.585c-2.034 3.688-5.426 7.255-6.626 11.381-1.248 4.297 2.102 7.59 5.435 6.845 5.375-1.175 14.268-12.335 17.899-16.803l1.397-2.2 93.238-6.973c3.307-.172 3.245-4.639 0-4.639z" fill="#fff"/><path d="M115.33 164.47c-.613 2.281-1.132 3.921-1.588 5.177v-18.758c1.862-.1 4.433-.232 4.433-.232l.315-6.317v-10.969H92.535s-2.945 7.759-3.755 9.925l-3.755-9.925H58.548v17.27s2.821.149 4.748.249l-.008 21.158c-1.736.099 153.58.099 151.66 0V150.89c1.851-.1 4.417-.232 4.417-.232l.329-6.317v-10.969h-56.226v17.286s2.976.149 4.877.232v20.167c-.526-1.06-1.237-3.159-2.315-7.81l-17.946-76.72-12.884-.125c0-.001-19.85 77.935-19.868 78.068zm24.963 4.335c.265 1.258.465 2.315.614 3.227-.961.034-1.456.051-2.665.097v-.166h-5.095a301 301 0 01.803-3.157l6.343-.001z" fill="#0094D9"/><path d="M144.44 157.29l-6.547-32.183-7.691 32.183h14.238zm39.618 10.142l15.154-18.478v-.63c0-2.052-1.159-3.985-4.88-3.985v-4.351h18.727v4.351c-4.615 0-4.749 1.801-4.749 6.416v21.426c0 4.746.38 6.416 4.749 6.416v4.22h-18.726v-4.22c4.236 0 4.88-1.539 4.88-6.416V155.52l-15.154 18.593v.764c0 2.562 1.424 3.721 4.88 3.721v4.22H142.39v-4.22c3.341 0 5.51-.265 5.51-3.606 0-2.035-.895-7.179-2.3-12.82h-16.804l-2.184 8.604c-1.538 5.639-1.034 7.823 4.996 7.823v4.22H92.75v-4.22c4.615 0 5.128-1.539 5.128-6.416v-20.017L86.082 181.43l-11.926-30.158v21.288c0 4.104.513 6.039 4.996 6.039v4.22H64.793v-4.22c4.88 0 5.127-2.96 5.127-7.064v-20.777c0-3.705 0-6.416-4.74-6.416v-4.351h15.253l8.345 22.067 8.336-22.067h14.74v4.351c-4.607 0-4.739 1.801-4.739 6.416v21.426c0 4.1.389 5.39 1.663 5.771 2.83 1.026 8.09.762 9.619-2.315 1.034-1.92 2.184-5.13 3.333-9.479l19.878-78.119 17.967 76.695c1.92 8.338 3.079 10.388 4.88 12.192 1.789 1.536 7.694 2.695 9.745.38.511-.511.759-1.405.759-5.126v-21.426c0-4.88-.379-6.416-4.863-6.416v-4.351h18.841v4.351c-4.615 0-4.88 1.934-4.88 6.416v16.675z" fill="#fff"/></g></svg>